<?xml version="1.0" encoding="utf-8"?>
<!-- Generator: Adobe Illustrator 26.3.1, SVG Export Plug-In . SVG Version: 6.00 Build 0)  -->
<svg version="1.1" id="圖層_1" xmlns="http://www.w3.org/2000/svg" xmlns:xlink="http://www.w3.org/1999/xlink" x="0px" y="0px" viewBox="0 0 240 240" style="enable-background:new 0 0 240 240;" xml:space="preserve">
<style type="text/css">
	.st0{fill:transparent;}
	.st1{stroke:#FFFFFF; stroke-width:2px; fill:transparent;}
</style>
<g>
	<!-- <rect x="0.2" y="0.2" class="st0" width="239.59" height="239.59"/> -->
	<polygon class="st1" points="198.02,178.84 186.89,178.81 177.5,202.5 188.52,202.5 	"/>
	<polygon class="st1" points="174.41,190.57 174.32,155.94 157.61,155.94 150.22,167.34 163.43,167.39 163.42,202.46 174.94,202.49 
		179.7,190.6 	"/>
	<polygon class="st1" points="138.12,90.54 138.14,112.87 149.04,112.87 149.07,80.69 	"/>
	<polygon class="st1" points="196.47,112.87 196.46,79.39 185.53,79.33 185.53,102.54 182.73,102.53 182.59,49.11 164.86,49.09 
		118.09,90.75 125.61,98.32 167.13,61.1 171.55,61.13 171.53,112.87 	"/>
	<polygon class="st1" points="149.53,41.73 138.14,41.69 138.08,69.93 149.41,59.44 	"/>
	<polygon class="st1" points="110.84,187.85 89.26,172.04 89.26,184.83 104.44,196.41 	"/>
	<rect x="89.26" y="139.49" class="st1" width="21.58" height="10.94"/>
	<polygon class="st1" points="59.55,75.51 49.97,68.95 87.31,38.63 95.96,45.63 	"/>
	<polygon class="st1" points="48.28,70.87 48.09,83.52 90.16,114.14 97.34,105.45 	"/>
	<rect x="122.39" y="54.75" class="st1" width="13.17" height="10.94"/>
	<path class="st1" d="M75.73,129.88v39.62h-32.2v33.29h43.18v-72.91H75.73z M75.73,191.82H54.51v-11.34h21.22
		C75.73,180.48,75.73,191.82,75.73,191.82z"/>
	<path class="st1" d="M122.39,206.47l12.12-39.53h-9.98l12.84-35.88l16.1,0.03l-9.79,24.02h11.76L122.39,206.47z M127.57,164.77
		h9.97l-9.69,29.17l23.65-36.65h-10.98l9.79-24.03l-11.39-0.02L127.57,164.77z"/>
</g>
</svg>
